<svg width="16" height="16" viewBox="0 0 16 16" fill="none" xmlns="http://www.w3.org/2000/svg">
<g clip-path="url(#clip0_737_4114)">
<path opacity="0.65" d="M11.5205 5.12063H10.8805V3.84062C10.8805 2.07422 9.44695 0.640625 7.68055 0.640625C5.91415 0.640625 4.48055 2.07422 4.48055 3.84062V5.12063H3.84055C3.13655 5.12063 2.56055 5.69662 2.56055 6.40062V12.8006C2.56055 13.5046 3.13655 14.0806 3.84055 14.0806H11.5205C12.2245 14.0806 12.8005 13.5046 12.8005 12.8006V6.40062C12.8005 5.69662 12.2245 5.12063 11.5205 5.12063ZM7.68055 10.8806C6.97655 10.8806 6.40055 10.3046 6.40055 9.60063C6.40055 8.89662 6.97655 8.32062 7.68055 8.32062C8.38455 8.32062 8.96055 8.89662 8.96055 9.60063C8.96055 10.3046 8.38455 10.8806 7.68055 10.8806ZM9.66455 5.12063H5.69655V3.84062C5.69655 2.74622 6.58615 1.85663 7.68055 1.85663C8.77495 1.85663 9.66455 2.74622 9.66455 3.84062V5.12063Z" fill="#49454F"/>
</g>
<defs>
<clipPath id="clip0_737_4114">
<rect width="15.36" height="15.36" fill="white"/>
</clipPath>
</defs>
</svg>
