<svg width="24" height="24" viewBox="0 0 24 24" fill="none" xmlns="http://www.w3.org/2000/svg">
<path d="M12 7.9996C13.1 7.9996 14 7.0996 14 5.9996C14 4.8996 13.1 3.9996 12 3.9996C10.9 3.9996 10 4.8996 10 5.9996C10 7.0996 10.9 7.9996 12 7.9996ZM12 9.9996C10.9 9.9996 10 10.8996 10 11.9996C10 13.0996 10.9 13.9996 12 13.9996C13.1 13.9996 14 13.0996 14 11.9996C14 10.8996 13.1 9.9996 12 9.9996ZM12 15.9996C10.9 15.9996 10 16.8996 10 17.9996C10 19.0996 10.9 19.9996 12 19.9996C13.1 19.9996 14 19.0996 14 17.9996C14 16.8996 13.1 15.9996 12 15.9996Z" fill="#79747E"/>
</svg>
